<svg width="21" height="20" viewBox="0 0 21 20" fill="none" xmlns="http://www.w3.org/2000/svg">
<g clip-path="url(#clip0_1_89)">
<path d="M10.5 0.624989C7.93126 0.544103 5.43541 1.48593 3.56048 3.24367C1.68556 5.00141 0.584836 7.43137 0.5 9.99999C0.584836 12.5686 1.68556 14.9986 3.56048 16.7563C5.43541 18.514 7.93126 19.4559 10.5 19.375C13.0687 19.4559 15.5646 18.514 17.4395 16.7563C19.3144 14.9986 20.4152 12.5686 20.5 9.99999C20.4152 7.43137 19.3144 5.00141 17.4395 3.24367C15.5646 1.48593 13.0687 0.544103 10.5 0.624989ZM18.8875 9.12499L17.35 8.74999C17.0375 8.66249 17.0125 8.63749 16.9875 8.59999C16.8 8.34999 16.5875 8.01249 16.3875 7.68749C16.3875 7.57499 16.225 7.39999 16.1875 7.29999C16.15 7.19999 16.625 6.54999 16.825 6.24999C17.0406 6.02584 17.2893 5.83613 17.5625 5.68749C18.2893 6.702 18.7454 7.88512 18.8875 9.12499ZM10.5 2.18749L10.3875 2.39999C10.3763 2.35907 10.3763 2.31591 10.3875 2.27499C10.3875 2.34999 10.2 2.46249 10.075 2.58749L9.7 2.94999C9.52897 3.12829 9.42543 3.36061 9.40718 3.607C9.38893 3.85339 9.45711 4.09844 9.6 4.29999H9.45C9.25261 4.30569 9.05905 4.35586 8.88374 4.44676C8.70844 4.53766 8.5559 4.66695 8.4375 4.82499C8.2993 5.01546 8.20518 5.23428 8.16194 5.4656C8.1187 5.69692 8.12743 5.93496 8.1875 6.16249V6.24999C8.00518 6.28249 7.82553 6.32845 7.65 6.38749L7.35 6.48749L6.55 6.74999C6.31163 6.81981 6.09433 6.94774 5.91761 7.12227C5.74089 7.29681 5.61028 7.51251 5.5375 7.74999C5.47936 7.94928 5.47177 8.15991 5.51542 8.36287C5.55907 8.56583 5.65257 8.75472 5.7875 8.91249C6.28814 9.4536 6.87014 9.9133 7.5125 10.275C8.14123 10.6939 8.85351 10.9711 9.6 11.0875H11.7C11.9529 11.0754 12.2047 11.1275 12.432 11.239C12.6593 11.3505 12.8547 11.5177 13 11.725C13.068 11.7951 13.1182 11.8805 13.1465 11.974C13.1747 12.0675 13.1802 12.1664 13.1625 12.2625C13.1376 12.4217 13.0731 12.5722 12.975 12.7C12.353 13.2087 11.9321 13.922 11.7875 14.7125C11.6256 15.3 11.4251 15.8763 11.1875 16.4375C11.0375 16.825 10.9 17.2 10.8 17.5C10.3807 17.5302 9.9592 17.4964 9.55 17.4C9.64961 16.4713 9.42911 15.5363 8.925 14.75C8.50462 14.2533 8.27037 13.6257 8.2625 12.975C8.34328 12.3577 8.20314 11.7318 7.86685 11.2079C7.53057 10.6841 7.01983 10.296 6.425 10.1125C5.02557 9.2427 3.79703 8.1243 2.8 6.81249C3.52237 5.3985 4.62689 4.2155 5.98804 3.39792C7.3492 2.58034 8.9124 2.16098 10.5 2.18749ZM2.0625 9.99999C2.06226 9.51277 2.11253 9.02684 2.2125 8.54999C3.23864 9.77818 4.48497 10.8041 5.8875 11.575C6.6375 11.85 6.75 12.1375 6.75 12.975C6.75277 14.0198 7.13476 15.0281 7.825 15.8125C8.00934 16.3547 8.06915 16.9315 8 17.5C6.32941 17.0655 4.84599 16.0983 3.77455 14.7449C2.70311 13.3915 2.10207 11.7257 2.0625 9.99999ZM12.4625 17.6C12.4625 17.4125 12.6125 17.2 12.6875 17C12.9717 16.3535 13.2016 15.6845 13.375 15C13.4729 14.576 13.7107 14.1974 14.05 13.925C14.4874 13.495 14.7426 12.9131 14.7625 12.3C14.7778 12.0093 14.7336 11.7186 14.6326 11.4456C14.5316 11.1726 14.3759 10.9232 14.175 10.7125C13.8743 10.3436 13.4919 10.0499 13.0579 9.85463C12.624 9.65935 12.1505 9.56788 11.675 9.58749H9.6875C8.75397 9.3346 7.89597 8.85841 7.1875 8.19999L7.775 7.99999L8.1125 7.89999C8.26115 7.83195 8.42436 7.80189 8.5875 7.81249L8.7 7.99999C8.79355 8.17542 8.94907 8.30974 9.13625 8.37675C9.32343 8.44377 9.52886 8.43868 9.7125 8.36249C9.89429 8.27767 10.0383 8.12861 10.1167 7.94398C10.1952 7.75936 10.2026 7.55224 10.1375 7.36249V7.13749C10 6.76249 9.8375 6.23749 9.7375 5.88749C10.0617 5.90109 10.3835 5.82555 10.6678 5.66908C10.9521 5.51261 11.188 5.28119 11.35 4.99999C11.4276 4.79054 11.4477 4.56412 11.4081 4.34428C11.3685 4.12445 11.2708 3.91924 11.125 3.74999C11.2721 3.61797 11.4099 3.47597 11.5375 3.32499C11.6522 3.1877 11.7362 3.02737 11.7836 2.85486C11.831 2.68234 11.8409 2.50164 11.8125 2.32499C13.5597 2.58219 15.1865 3.36725 16.475 4.57499C16.0967 4.806 15.7624 5.10225 15.4875 5.44999C15.1897 5.88515 14.9224 6.3404 14.6875 6.81249C14.5867 7.10386 14.5613 7.41604 14.6137 7.71987C14.6662 8.02371 14.7948 8.3093 14.9875 8.54999C15.2125 8.93749 15.4625 9.31249 15.6875 9.62499C15.9976 10.0159 16.4442 10.2749 16.9375 10.35C17.2125 10.425 18.1875 10.625 18.875 10.7625C18.654 12.4291 17.9167 13.9846 16.7666 15.2109C15.6166 16.4372 14.1115 17.2726 12.4625 17.6Z" fill="white"/>
</g>
<defs>
<clipPath id="clip0_1_89">
<rect width="20" height="20" fill="white" transform="translate(0.5)"/>
</clipPath>
</defs>
</svg>
