<svg width="62" height="57" viewBox="0 0 62 57" fill="none" xmlns="http://www.w3.org/2000/svg">
<path d="M61 19.3446C61.0103 23.9609 59.2318 28.4017 56.0379 31.7348C48.7148 39.3279 41.6107 47.245 34.0176 54.5591C32.2746 56.2091 29.5116 56.1491 27.8466 54.4241L5.96131 31.7378C-0.653769 24.8797 -0.653769 13.8095 5.96131 6.95438C7.52475 5.31335 9.40516 4.0069 11.4885 3.11424C13.5719 2.22158 15.8149 1.7613 18.0814 1.7613C20.348 1.7613 22.591 2.22158 24.6744 3.11424C26.7577 4.0069 28.6382 5.31335 30.2016 6.95438L30.9996 7.77639L31.7946 6.95438C33.3599 5.31558 35.2406 4.01042 37.3236 3.11745C39.4065 2.22448 41.6485 1.76215 43.9148 1.7583C48.4748 1.7583 52.8339 3.63033 56.0349 6.95438C59.2299 10.287 61.0095 14.7278 61 19.3446Z" stroke="white" stroke-width="2" stroke-linejoin="round"/>
<path d="M31 28.7583C29.1435 28.7583 27.363 29.4958 26.0503 30.8086C24.7375 32.1213 24 33.9018 24 35.7583V36.7583H38V35.7583C38 33.9018 37.2625 32.1213 35.9497 30.8086C34.637 29.4958 32.8565 28.7583 31 28.7583ZM31 28.7583C32.0609 28.7583 33.0783 28.3369 33.8284 27.5867C34.5786 26.8366 35 25.8192 35 24.7583C35 23.6974 34.5786 22.68 33.8284 21.9299C33.0783 21.1797 32.0609 20.7583 31 20.7583C29.9391 20.7583 28.9217 21.1797 28.1716 21.9299C27.4214 22.68 27 23.6974 27 24.7583C27 25.8192 27.4214 26.8366 28.1716 27.5867C28.9217 28.3369 29.9391 28.7583 31 28.7583Z" stroke="white" stroke-width="2" stroke-linecap="round" stroke-linejoin="round"/>
</svg>
