<svg width="73" height="60" viewBox="0 0 73 60" fill="none" xmlns="http://www.w3.org/2000/svg">
<path d="M9 47.2583H27M9 47.2583V15.2583M9 47.2583L27 15.2583M27 47.2583V15.2583M27 47.2583L9 15.2583M27 15.2583H9M32.5 47.2583H64M64 43.2583H32.5M32.5 38.2583H64M64 32.2583H32.5M32.5 27.2583H64M31 22.7583V16.2583C31 15.706 31.4477 15.2583 32 15.2583H64.5C65.0523 15.2583 65.5 15.706 65.5 16.2583V22.7583C65.5 23.3106 65.0523 23.7583 64.5 23.7583H32C31.4477 23.7583 31 23.3106 31 22.7583ZM71.5 57.2583V2.7583C71.5 2.20602 71.0523 1.7583 70.5 1.7583H2C1.44772 1.7583 1 2.20602 1 2.7583V57.2583C1 57.8106 1.44772 58.2583 2 58.2583H70.5C71.0523 58.2583 71.5 57.8106 71.5 57.2583Z" stroke="white" stroke-width="2" stroke-linecap="round"/>
</svg>
