<svg width="455" height="64" viewBox="0 0 455 64" fill="none" xmlns="http://www.w3.org/2000/svg">
<path d="M0.02622 59.7725C-0.0994203 60.3103 0.234704 60.8481 0.772508 60.9738L9.53653 63.0212C10.0743 63.1468 10.6122 62.8127 10.7378 62.2749C10.8634 61.7371 10.5293 61.1993 9.99151 61.0736L2.20127 59.2537L4.02121 51.4635C4.14685 50.9257 3.81272 50.3878 3.27492 50.2622C2.73712 50.1366 2.19929 50.4707 2.07365 51.0085L0.02622 59.7725ZM454.489 59.1279C414.708 36.8019 344.324 10.0433 262.345 2.23794C180.355 -5.56844 86.7046 5.57892 0.472295 59.1506L1.52771 60.8494C87.2954 7.56639 180.478 -3.54765 262.155 4.22894C343.843 12.0065 413.959 38.6753 453.511 60.8721L454.489 59.1279Z" fill="#060708"/>
</svg>
