<svg width="82" height="74" viewBox="0 0 82 74" fill="none" xmlns="http://www.w3.org/2000/svg">
<path d="M36.9988 65.9392H58.4988M58.4988 65.9392V55.9392C58.4988 55.387 58.0511 54.9392 57.4988 54.9392H51.4988M58.4988 65.9392V71.4392C58.4988 71.9915 58.0511 72.4392 57.4988 72.4392H33.4988C32.9465 72.4392 32.4988 71.9915 32.4988 71.4392V60.4392M32.4988 60.4392V55.9392C32.4988 55.387 32.9465 54.9392 33.4988 54.9392H36.9988M32.4988 60.4392H51.4988M36.9988 54.9392C24.6654 40.6059 7.06907 5.23681 39.4988 1.93924C69 -1.06055 60.6654 33.9392 51.4988 54.9392M36.9988 54.9392H48.5M51.4988 54.9392H48.5M70.5 12.4395L78 9.43945M71.5 21.9395H81M70.5 29.9395L78 35.9395M12.5 31.9395L5 37.4395M1 25.4395L9.5 22.9395M11 13.9395L1 9.43945M40.5 54.4395C41.8333 44.9395 41.8665 24.4395 31 24.4395C22.5 24.4395 35.5012 47.4395 47 31.9395C56.0056 19.8002 53.2884 15.2961 50.6686 14.4865C50.5575 14.4522 50.4428 14.4442 50.3277 14.4607C45.4997 15.1504 38.6182 24.1078 48.5 54.9392" stroke="white" stroke-width="2" stroke-linecap="round"/>
</svg>
