<svg width="24" height="25" viewBox="0 0 24 25" fill="none" xmlns="http://www.w3.org/2000/svg">
<path d="M9 9.50004H13.1505V11.627H13.2105C13.788 10.5905 15.201 9.50004 17.3085 9.50004C21.69 9.50004 22.5 12.227 22.5 15.7745V23H18.1725V16.595C18.1725 15.068 18.141 13.1015 15.9225 13.1015C13.6695 13.1015 13.3245 14.765 13.3245 16.484V23H9V9.50004ZM1.5 9.50004H6V23H1.5V9.50004ZM6 5.75004C5.99981 6.34697 5.76248 6.91938 5.34025 7.34134C4.91801 7.76329 4.34544 8.00023 3.7485 8.00004C3.15157 7.99984 2.57916 7.76251 2.1572 7.34028C1.73525 6.91804 1.49831 6.34547 1.4985 5.74854C1.4987 5.1516 1.73603 4.57919 2.15826 4.15723C2.36734 3.9483 2.61551 3.7826 2.88862 3.66958C3.16173 3.55656 3.45443 3.49844 3.75 3.49854C4.04558 3.49863 4.33824 3.55695 4.61127 3.67015C4.88431 3.78335 5.13237 3.94922 5.34131 4.1583C5.55024 4.36737 5.71594 4.61554 5.82896 4.88865C5.94198 5.16176 6.0001 5.45446 6 5.75004Z" fill="black"/>
</svg>
