<svg width="22" height="20" viewBox="0 0 22 20" fill="none" xmlns="http://www.w3.org/2000/svg">
<path d="M8 6.50004H12.1505V8.62704H12.2105C12.788 7.59054 14.201 6.50004 16.3085 6.50004C20.69 6.50004 21.5 9.22704 21.5 12.7745V20H17.1725V13.595C17.1725 12.068 17.141 10.1015 14.9225 10.1015C12.6695 10.1015 12.3245 11.765 12.3245 13.484V20H8V6.50004ZM0.500005 6.50004H5V20H0.500005V6.50004ZM5 2.75004C4.99981 3.34697 4.76248 3.91938 4.34025 4.34134C3.91801 4.76329 3.34544 5.00023 2.7485 5.00004C2.15157 4.99984 1.57916 4.76251 1.1572 4.34028C0.735247 3.91804 0.498306 3.34547 0.498505 2.74854C0.498704 2.1516 0.736026 1.57919 1.15826 1.15723C1.36734 0.948303 1.61551 0.782596 1.88862 0.669576C2.16173 0.556557 2.45443 0.498437 2.75 0.498535C3.04558 0.498634 3.33824 0.556949 3.61127 0.67015C3.88431 0.783352 4.13237 0.949224 4.34131 1.1583C4.55024 1.36737 4.71594 1.61554 4.82896 1.88865C4.94198 2.16176 5.0001 2.45446 5 2.75004Z" fill="black"/>
</svg>
