<svg width="61" height="71" viewBox="0 0 61 71" fill="none" xmlns="http://www.w3.org/2000/svg">
<path d="M51 43.2583L55.65 58.7583M51 43.2583L29.0723 15.2583M51 43.2583L46 47.6522M34.5 57.7583L49.3571 64.2583M34.5 57.7583L10.2184 25.2583M34.5 57.7583L40.25 52.7053M49.3571 64.2583L58.5 68.2583L55.65 58.7583M49.3571 64.2583L55.65 58.7583M13 28.2583L17.6362 24.5083M29.0723 15.2583L26.7229 12.2583M29.0723 15.2583L22.2725 20.7583M26.7229 12.2583L10.2184 25.2583M26.7229 12.2583L24.3735 9.2583M10.2184 25.2583L8 22.2891M8 22.2891L2 14.2583L18.5 1.7583L24.3735 9.2583M8 22.2891L24.3735 9.2583M22.2725 20.7583L46 47.6522M22.2725 20.7583L17.6362 24.5083M46 47.6522L40.25 52.7053M40.25 52.7053L17.6362 24.5083" stroke="white" stroke-width="2"/>
</svg>
