<svg width="23" height="16" viewBox="0 0 23 16" fill="none" xmlns="http://www.w3.org/2000/svg">
<path d="M22.2556 2.35559C21.5808 1.29355 19.7388 1.0791 16.92 1.71819C15.6288 0.788028 14.0767 0.208735 12.4415 0.0466847C10.8063 -0.115365 9.15419 0.146383 7.67444 0.80194C6.19469 1.4575 4.94714 2.48035 4.07475 3.7533C3.20236 5.02625 2.7404 6.4978 2.74181 7.99937C2.74186 8.36946 2.76989 8.7391 2.82571 9.10566C0.788005 11.0102 0.0702421 12.576 0.747922 13.6432C1.16739 14.3035 2.05295 14.638 3.34492 14.638C4.13009 14.6256 4.91147 14.5354 5.67532 14.369C5.81048 14.3418 5.94751 14.3112 6.0864 14.2839C7.45965 15.2721 9.12548 15.8624 10.8694 15.9787C12.6133 16.0951 14.3554 15.7322 15.8715 14.9368C17.3875 14.1414 18.608 12.9499 19.3758 11.5157C20.1436 10.0815 20.4236 8.47037 20.1797 6.88968C21.3589 5.78338 22.1475 4.73496 22.4039 3.86014C22.5698 3.27891 22.5213 2.77342 22.2556 2.35559ZM11.4995 1.02123C13.2497 1.02343 14.9463 1.57312 16.3065 2.57872C17.6666 3.58432 18.6083 4.98508 18.9744 6.54758C17.483 7.84959 15.4192 9.24267 13.0739 10.4724C10.5198 11.8135 8.21732 12.6798 6.35859 13.1564C5.21964 12.2085 4.42113 10.9685 4.06783 9.59903C3.71454 8.22954 3.82296 6.79453 4.37887 5.48228C4.93478 4.17004 5.91221 3.04185 7.18293 2.24575C8.45365 1.44964 9.95829 1.0228 11.4995 1.02123ZM1.71178 13.1309C1.38366 12.6143 1.9271 11.5514 3.11001 10.3226C3.4972 11.484 4.16885 12.5496 5.07407 13.4389C3.24238 13.764 2.02778 13.6227 1.71178 13.1309ZM11.4995 14.9775C10.0701 14.9789 8.66931 14.6116 7.45854 13.918C9.38625 13.347 11.519 12.4662 13.6313 11.3582C15.7594 10.2417 17.6517 9.00354 19.1357 7.79173C19.1357 7.86066 19.1413 7.92959 19.1413 7.99937C19.1393 9.84924 18.3336 11.6228 16.901 12.9311C15.4683 14.2393 13.5258 14.9753 11.4995 14.9775ZM21.3198 3.59208C21.1445 4.18777 20.6411 4.91027 19.888 5.68637C19.5013 4.52222 18.8286 3.45403 17.9211 2.56323C19.3958 2.30368 20.904 2.26623 21.2881 2.86788C21.399 3.04234 21.4092 3.28657 21.3198 3.59208Z" fill="white"/>
</svg>
