<svg width="57" height="75" viewBox="0 0 57 75" fill="none" xmlns="http://www.w3.org/2000/svg">
<path d="M5.5 15.2583L12 24.7583M5.5 24.7583L12 15.2583M4 36.2583L8.5 42.7583L15.5 27.2583M4 56.2583L8.5 64.2583L15.5 47.2583M15.5 19.2583L18.4821 21.4949C19.0004 21.8836 19.746 21.6843 20.0012 21.0888L21.7466 17.0163C22.0646 16.2741 23.0858 16.1955 23.5137 16.8802L24.055 17.7463C24.4689 18.4085 25.4482 18.362 25.7974 17.6635L26.2026 16.8531C26.5518 16.1546 27.5474 16.0986 28.0355 16.7082C29.0298 17.9502 30.3794 19.2583 31.5 19.2583C32.5616 19.2583 33.5352 18.0843 34.2162 16.9047C34.6112 16.2207 35.6358 16.0764 36.1703 16.658C37.3254 17.9146 38.8642 19.2583 40 19.2583C41.2999 19.2583 43.5677 17.4983 45.0878 16.123C45.5647 15.6916 46.3254 15.7789 46.6662 16.3243L48.5 19.2583M17 33.7583C16.5157 36.8257 16.8758 42.4889 21.9884 41.3869C22.3111 41.3174 22.5624 41.0711 22.6668 40.7579L24.3356 35.7515C24.6019 34.9526 25.688 34.8123 26.1797 35.4958C27.4593 37.2746 29.1174 39.2583 30 39.2583C30.6036 39.2583 30.9795 38.3306 31.204 37.1751C31.3949 36.193 32.9384 35.7255 33.6586 36.4199C34.8933 37.6104 36.3374 38.4558 37.5 37.7583C38.6837 37.0481 39.342 36.0693 39.6821 35.2159C39.9463 34.553 40.7259 34.0608 41.3846 34.3352L46 36.2583M15.5 62.2583C17.3333 60.2583 21 55.3583 21 51.7583C21 47.2583 23 61.2583 25 58.7583C27 56.2583 30 56.2583 28.5 51.7583C27 47.2583 32 61.2583 33.5 58.7583C34.0315 57.8724 34.9097 56.823 35.839 55.8274C37.0114 54.5713 38.8062 55.7852 40.0853 56.9326C40.622 57.4141 41.3985 57.3598 42.5 56.2583C43.6156 55.1427 44.5036 54.2547 45.1894 53.5689C46.1095 52.6488 47.6334 52.8612 48.5081 53.8244C49.4632 54.8764 50.5024 55.5023 51 54.2583M1 73.2583H55.5V1.7583H1V73.2583Z" stroke="white" stroke-width="2" stroke-linecap="round"/>
</svg>
