<svg width="15" height="15" viewBox="0 0 15 15" fill="none" xmlns="http://www.w3.org/2000/svg">
<path d="M8.94522 6.05475L6.77813 8.22161M13.4875 1.02114C13.556 0.997487 13.6298 0.993595 13.7005 1.00991C13.7711 1.02622 13.8358 1.06208 13.887 1.11338C13.9382 1.16469 13.974 1.22937 13.9902 1.30004C14.0064 1.37071 14.0024 1.44451 13.9787 1.51302L9.69937 13.7413C9.67377 13.8144 9.62678 13.8781 9.56452 13.9242C9.50225 13.9703 9.42757 13.9966 9.35018 13.9997C9.27278 14.0028 9.19623 13.9826 9.13046 13.9417C9.06469 13.9008 9.01274 13.841 8.98134 13.7702L6.65605 8.53941C6.61726 8.4522 6.54751 8.38245 6.46028 8.34367L1.22891 6.01791C1.15833 5.98641 1.09882 5.93446 1.05807 5.86879C1.01732 5.80311 0.997202 5.72673 1.00031 5.64951C1.00342 5.57229 1.02962 5.49777 1.07552 5.43559C1.12142 5.37341 1.18492 5.32641 1.2578 5.30068L13.4875 1.02114Z" stroke="black" stroke-width="1.5" stroke-linecap="round" stroke-linejoin="round"/>
</svg>
