<svg width="56" height="56" viewBox="0 0 56 56" fill="none" xmlns="http://www.w3.org/2000/svg">
<path fill-rule="evenodd" clip-rule="evenodd" d="M12.2514 0.20236C11.7377 -0.130494 11.0592 -0.0454227 10.6437 0.403773L9.2115 1.95273L7.08694 4.48152L5.41719 8.07272L7.19526 10.5858L9.0012 12.2876L9.03287 12.3324L8.95939 14.8726L10.0711 13.7871L15.7657 21.767L15.2881 23.913L13.6817 23.2672L9.24444 18.7334L9.32172 17.3935L8.592 18.0665L6.57575 16.0061H1.66278L0 19.809L0.850711 22.6695L8.04407 30.6318L8.14795 35.149L1.68242 56L11.1625 48.7878L14.4254 54.962L19.2249 49.064L22.6709 54.8931L27.5515 48.8952L32.2365 54.8564L36.1378 48.8887L41.8451 54.7927L45.1986 48.8398L53.4846 55.9741L49.2355 35.0723H54.8104V33.4578L56 33.0561L54.8104 32.4947V32.4041L55.7568 32.0846L54.8104 31.6379V30.0583L40.1063 10.9649C39.2461 9.84764 38.1807 8.93976 36.9892 8.27318L37.0512 7.19247L36.274 7.90918L36.0947 7.82853L36.1594 6.70671L35.2846 7.51378C33.796 7.00703 32.1851 6.84041 30.573 7.06261L24.1918 7.94223L12.2514 0.20236ZM52.4591 32.7244H47.9806L39.2835 27.1249L38.5652 29.3606L46.7815 34.8061L49.8119 49.7121L44.5575 45.1881L41.3434 50.8935L35.7806 45.1391L32.0604 50.8298L27.5832 45.1327L22.9774 50.793L19.5315 44.9639L14.8447 50.7241L11.9454 45.24L6.10131 49.6862L10.5816 35.2383L10.1978 29.511L3.20204 21.767L2.35133 20.2992L3.20204 18.3539H5.58632L12.3451 25.2609L16.9819 27.1249L18.2881 21.2558L10.7824 10.7379L8.9803 9.03942L8.12325 7.8283L9.08861 5.7523L10.3403 4.26256L13.0014 5.91193L14.1118 4.20741L23.6457 10.3876L30.8948 9.38841C33.7073 9.00072 36.5122 10.1488 38.2427 12.3961L52.4591 30.8567V32.7244ZM28.5403 14.7198L31.4485 15.7856L34.3686 19.2693L36.1714 17.7624L32.8484 13.7977L29.3511 12.5157L28.5403 14.7198ZM32.645 38.7047L31.1064 31.8211L28.8121 32.3324L29.4626 35.245L24.2025 33.5942V38.234L21.352 36.0444L19.9179 37.9053L26.5539 43.0021V36.7932L32.645 38.7047ZM16.8242 12.7272C17.1827 12.7272 17.4728 12.4372 17.4728 12.0795C17.4728 11.7218 17.1827 11.4318 16.8242 11.4318C16.4657 11.4318 16.1756 11.7218 16.1756 12.0795C16.1756 12.4372 16.4657 12.7272 16.8242 12.7272ZM19.5809 14.1845C19.5809 14.5422 19.2908 14.8322 18.9323 14.8322C18.5738 14.8322 18.2836 14.5422 18.2836 14.1845C18.2836 13.8268 18.5738 13.5368 18.9323 13.5368C19.2908 13.5368 19.5809 13.8268 19.5809 14.1845ZM17.8782 17.4229C18.2368 17.4229 18.5269 17.1329 18.5269 16.7752C18.5269 16.4175 18.2368 16.1275 17.8782 16.1275C17.5197 16.1275 17.2296 16.4175 17.2296 16.7752C17.2296 17.1329 17.5197 17.4229 17.8782 17.4229Z" fill="white"/>
</svg>
