<svg width="57" height="56" viewBox="0 0 57 56" fill="none" xmlns="http://www.w3.org/2000/svg">
<path fill-rule="evenodd" clip-rule="evenodd" d="M12.7514 0.20236C12.2377 -0.130494 11.5592 -0.0454227 11.1437 0.403773L9.7115 1.95273L7.58694 4.48152L5.91719 8.07272L7.69526 10.5858L9.5012 12.2876L9.53287 12.3324L9.45939 14.8726L10.5711 13.7871L16.2657 21.767L15.7881 23.913L14.1817 23.2672L9.74444 18.7334L9.82172 17.3935L9.092 18.0665L7.07575 16.0061H2.16278L0.5 19.809L1.35071 22.6695L8.54407 30.6318L8.64795 35.149L2.18242 56L11.6625 48.7878L14.9254 54.962L19.7249 49.064L23.1709 54.8931L28.0515 48.8952L32.7365 54.8564L36.6378 48.8887L42.3451 54.7927L45.6986 48.8398L53.9846 55.9741L49.7355 35.0723H55.3104V33.4578L56.5 33.0561L55.3104 32.4947V32.4041L56.2568 32.0846L55.3104 31.6379V30.0583L40.6063 10.9649C39.7461 9.84764 38.6807 8.93976 37.4892 8.27318L37.5512 7.19247L36.774 7.90918L36.5947 7.82853L36.6594 6.70671L35.7846 7.51378C34.296 7.00703 32.6851 6.84041 31.073 7.06261L24.6918 7.94223L12.7514 0.20236ZM52.9591 32.7244H48.4806L39.7835 27.1249L39.0652 29.3606L47.2815 34.8061L50.3119 49.7121L45.0575 45.1881L41.8434 50.8935L36.2806 45.1391L32.5604 50.8298L28.0832 45.1327L23.4774 50.793L20.0315 44.9639L15.3447 50.7241L12.4454 45.24L6.60131 49.6862L11.0816 35.2383L10.6978 29.511L3.70204 21.767L2.85133 20.2992L3.70204 18.3539H6.08632L12.8451 25.2609L17.4819 27.1249L18.7881 21.2558L11.2824 10.7379L9.4803 9.03942L8.62325 7.8283L9.58861 5.7523L10.8403 4.26256L13.5014 5.91193L14.6118 4.20741L24.1457 10.3876L31.3948 9.38841C34.2073 9.00072 37.0122 10.1488 38.7427 12.3961L52.9591 30.8567V32.7244ZM29.0403 14.7198L31.9485 15.7856L34.8686 19.2693L36.6714 17.7624L33.3484 13.7977L29.8511 12.5157L29.0403 14.7198ZM33.145 38.7047L31.6064 31.8211L29.3121 32.3324L29.9626 35.245L24.7025 33.5942V38.234L21.852 36.0444L20.4179 37.9053L27.0539 43.0021V36.7932L33.145 38.7047ZM17.3242 12.7272C17.6827 12.7272 17.9728 12.4372 17.9728 12.0795C17.9728 11.7218 17.6827 11.4318 17.3242 11.4318C16.9657 11.4318 16.6756 11.7218 16.6756 12.0795C16.6756 12.4372 16.9657 12.7272 17.3242 12.7272ZM20.0809 14.1845C20.0809 14.5422 19.7908 14.8322 19.4323 14.8322C19.0738 14.8322 18.7836 14.5422 18.7836 14.1845C18.7836 13.8268 19.0738 13.5368 19.4323 13.5368C19.7908 13.5368 20.0809 13.8268 20.0809 14.1845ZM18.3782 17.4229C18.7368 17.4229 19.0269 17.1329 19.0269 16.7752C19.0269 16.4175 18.7368 16.1275 18.3782 16.1275C18.0197 16.1275 17.7296 16.4175 17.7296 16.7752C17.7296 17.1329 18.0197 17.4229 18.3782 17.4229Z" fill="black"/>
</svg>
